<?xml version="1.0" standalone="no"?>
<!DOCTYPE svg PUBLIC "-//W3C//DTD SVG 20010904//EN"
 "http://www.w3.org/TR/2001/REC-SVG-20010904/DTD/svg10.dtd">
<svg version="1.0" xmlns="http://www.w3.org/2000/svg"
 width="540.000000pt" height="360.000000pt" viewBox="0 0 540.000000 360.000000"
 preserveAspectRatio="xMidYMid meet">

<g transform="translate(0.000000,360.000000) scale(0.100000,-0.100000)"
fill="#FF0000" stroke="none">
<path d="M2365 2404 c-82 -96 -154 -181 -159 -188 -9 -13 36 -66 446 -540 89
-102 135 -163 130 -171 -19 -33 -85 -96 -92 -89 -4 5 -60 69 -123 143 -63 73
-119 132 -123 130 -5 -2 -44 -43 -87 -93 -76 -88 -77 -90 -59 -110 10 -12 88
-102 173 -201 85 -99 159 -185 165 -191 6 -7 23 -26 38 -44 15 -18 28 -31 29
-29 2 2 96 113 210 245 114 133 207 245 207 248 0 4 -127 154 -282 334 -155
180 -287 334 -295 343 -11 14 -3 28 67 110 44 52 86 95 93 96 6 1 37 -27 67
-64 30 -36 67 -80 82 -98 l28 -33 -41 -46 c-22 -25 -39 -50 -37 -55 6 -18 149
-181 158 -181 13 0 245 271 244 285 -1 7 -72 94 -159 194 l-157 181 -187 0
-186 -1 -150 -175z"/>
<path d="M3175 1959 c-66 -78 -120 -145 -120 -149 0 -5 36 -50 79 -101 l80
-92 43 49 43 49 45 -50 c24 -27 61 -71 82 -97 l38 -47 169 -1 170 0 -26 28
c-27 29 -289 334 -403 468 -38 46 -72 83 -75 83 -3 0 -59 -63 -125 -140z"/>
<path d="M1870 1829 c-124 -144 -235 -274 -248 -290 l-23 -29 165 0 165 0 86
100 87 100 45 -50 44 -49 84 96 83 96 -125 143 c-68 79 -127 144 -131 144 -4
0 -108 -118 -232 -261z"/>
</g>
</svg>
